<?xml version="1.0" encoding="UTF-8" standalone="no"?>
<!-- Created with Inkscape (http://www.inkscape.org/) -->

<svg
   xmlns:dc="http://purl.org/dc/elements/1.1/"
   xmlns:cc="http://creativecommons.org/ns#"
   xmlns:rdf="http://www.w3.org/1999/02/22-rdf-syntax-ns#"
   xmlns:svg="http://www.w3.org/2000/svg"
   xmlns="http://www.w3.org/2000/svg"
   xmlns:sodipodi="http://sodipodi.sourceforge.net/DTD/sodipodi-0.dtd"
   xmlns:inkscape="http://www.inkscape.org/namespaces/inkscape"
   width="210mm"
   height="297mm"
   id="svg2"
   version="1.1"
   inkscape:version="0.48.4 r9939"
   sodipodi:docname="Nouveau document 1">
  <sodipodi:namedview
     id="base"
     pagecolor="#ffffff"
     bordercolor="#666666"
     borderopacity="1.0"
     inkscape:pageopacity="0.0"
     inkscape:pageshadow="2"
     inkscape:zoom="1.4"
     inkscape:cx="300.96853"
     inkscape:cy="883.85332"
     inkscape:document-units="px"
     inkscape:current-layer="layer1"
     showgrid="false"
     inkscape:window-width="1366"
     inkscape:window-height="698"
     inkscape:window-x="-1"
     inkscape:window-y="-15"
     inkscape:window-maximized="1" />
  <defs
     id="defs4" />
  <metadata
     id="metadata7">
    <rdf:RDF>
      <cc:Work
         rdf:about="">
        <dc:format>image/svg+xml</dc:format>
        <dc:type
           rdf:resource="http://purl.org/dc/dcmitype/StillImage" />
        <dc:title></dc:title>
      </cc:Work>
    </rdf:RDF>
  </metadata>
  <g
     inkscape:label="Calque 1"
     inkscape:groupmode="layer"
     id="layer1">
    <g
       id="g4069"
       transform="translate(-115.15739,-226.27417)">
      <path
         sodipodi:open="true"
         sodipodi:end="6.2815432"
         sodipodi:start="0"
         d="m 364.66506,443.2402 c 0,56.34708 -45.67833,102.02542 -102.02541,102.02542 -56.34708,0 -102.02542,-45.67834 -102.02542,-102.02542 0,-56.34708 45.67834,-102.02541 102.02542,-102.02541 56.28166,0 101.93285,45.57629 102.02527,101.85788"
         sodipodi:ry="102.02541"
         sodipodi:rx="102.02541"
         sodipodi:cy="443.2402"
         sodipodi:cx="262.63965"
         id="path2985"
         style="fill:none;stroke:#000000;stroke-width:2;stroke-linecap:round;stroke-linejoin:round;stroke-miterlimit:4;stroke-opacity:1;stroke-dasharray:none;stroke-dashoffset:0"
         sodipodi:type="arc" />
      <path
         inkscape:transform-center-x="-0.69571095"
         transform="matrix(0.1613701,0.04081763,-0.05978513,0.23635701,292.24244,248.26659)"
         inkscape:transform-center-y="-11.359747"
         d="M 165.42361,384.4243 71.904118,384.32366 118.75102,303.38372 z"
         inkscape:randomized="0"
         inkscape:rounded="0"
         inkscape:flatsided="true"
         sodipodi:arg2="1.5718723"
         sodipodi:arg1="0.52467485"
         sodipodi:r2="21.441959"
         sodipodi:r1="53.993538"
         sodipodi:cy="357.37723"
         sodipodi:cx="118.69292"
         sodipodi:sides="3"
         id="path3755"
         style="fill:none;stroke:#000000;stroke-width:8.75536728;stroke-linecap:round;stroke-linejoin:round;stroke-miterlimit:4;stroke-opacity:1;stroke-dasharray:none;stroke-dashoffset:0"
         sodipodi:type="star" />
      <path
         transform="matrix(0.20567183,0,0,0.20567183,270.49079,264.56505)"
         sodipodi:open="true"
         sodipodi:end="4.3100274"
         sodipodi:start="1.380808"
         d="m 174.07301,321.4625 c -31.18497,5.21488 -61.32699,-12.54059 -67.3241,-39.65795 -5.11509,-23.12909 9.02609,-46.22617 33.94881,-55.44931"
         sodipodi:ry="50"
         sodipodi:rx="57.5"
         sodipodi:cy="272.36218"
         sodipodi:cx="163.21428"
         id="path3759"
         style="fill:none;stroke:#000000;stroke-width:8.57555485;stroke-linecap:round;stroke-linejoin:round;stroke-miterlimit:4;stroke-opacity:1;stroke-dasharray:none;stroke-dashoffset:0"
         sodipodi:type="arc" />
      <path
         inkscape:transform-center-x="-11.277339"
         transform="matrix(0.04308104,0.16078063,-0.23549362,0.06310033,447.44571,373.05453)"
         inkscape:transform-center-y="-0.73429157"
         d="M 165.42361,384.4243 71.904118,384.32366 118.75102,303.38372 z"
         inkscape:randomized="0"
         inkscape:rounded="0"
         inkscape:flatsided="true"
         sodipodi:arg2="1.5718723"
         sodipodi:arg1="0.52467485"
         sodipodi:r2="21.441959"
         sodipodi:r1="53.993538"
         sodipodi:cy="357.37723"
         sodipodi:cx="118.69292"
         sodipodi:sides="3"
         id="path3755-4"
         style="fill:none;stroke:#000000;stroke-width:8.75536728;stroke-linecap:round;stroke-linejoin:round;stroke-miterlimit:4;stroke-opacity:1;stroke-dasharray:none;stroke-dashoffset:0"
         sodipodi:type="star" />
      <path
         transform="matrix(0.20567183,0,0,0.20567183,358.74246,351.3917)"
         sodipodi:open="true"
         sodipodi:end="4.3100274"
         sodipodi:start="1.380808"
         d="m 174.07301,321.4625 c -31.18497,5.21488 -61.32699,-12.54059 -67.3241,-39.65795 -5.11509,-23.12909 9.02609,-46.22617 33.94881,-55.44931"
         sodipodi:ry="50"
         sodipodi:rx="57.5"
         sodipodi:cy="272.36218"
         sodipodi:cx="163.21428"
         id="path3759-1"
         style="fill:none;stroke:#000000;stroke-width:8.57555485;stroke-linecap:round;stroke-linejoin:round;stroke-miterlimit:4;stroke-opacity:1;stroke-dasharray:none;stroke-dashoffset:0"
         sodipodi:type="arc" />
      <g
         style="stroke-width:1.25;stroke-miterlimit:4;stroke-dasharray:none"
         transform="translate(-42.142857,-46.428571)"
         id="g3841">
        <path
           style="fill:none;stroke:#000000;stroke-width:1.25;stroke-linecap:butt;stroke-linejoin:miter;stroke-miterlimit:4;stroke-opacity:1;stroke-dasharray:none"
           d="m 442.73239,333.1575 0,129.48079"
           id="path3793"
           inkscape:connector-curvature="0" />
        <path
           style="fill:none;stroke:#000000;stroke-width:1.25;stroke-linecap:butt;stroke-linejoin:miter;stroke-miterlimit:4;stroke-opacity:1;stroke-dasharray:none"
           d="m 465.068,333.1575 0,129.48079"
           id="path3793-8"
           inkscape:connector-curvature="0" />
        <path
           style="fill:none;stroke:#000000;stroke-width:1.25;stroke-linecap:butt;stroke-linejoin:miter;stroke-miterlimit:4;stroke-opacity:1;stroke-dasharray:none"
           d="m 487.40362,333.1575 0,129.48079"
           id="path3793-3"
           inkscape:connector-curvature="0" />
        <path
           style="fill:none;stroke:#000000;stroke-width:1.25;stroke-linecap:butt;stroke-linejoin:miter;stroke-miterlimit:4;stroke-opacity:1;stroke-dasharray:none"
           d="m 509.73923,333.1575 0,129.48079"
           id="path3793-5"
           inkscape:connector-curvature="0" />
        <path
           style="fill:none;stroke:#000000;stroke-width:1.25;stroke-linecap:butt;stroke-linejoin:miter;stroke-miterlimit:4;stroke-opacity:1;stroke-dasharray:none"
           d="m 532.07485,333.1575 0,129.48079"
           id="path3793-1"
           inkscape:connector-curvature="0" />
        <path
           style="fill:none;stroke:#000000;stroke-width:1.25;stroke-linecap:butt;stroke-linejoin:miter;stroke-miterlimit:4;stroke-opacity:1;stroke-dasharray:none"
           d="m 554.41046,333.1575 0,129.48079"
           id="path3793-4"
           inkscape:connector-curvature="0" />
      </g>
      <g
         id="g3942"
         style="fill:#ff0000;fill-opacity:1;stroke:#ff0000;stroke-opacity:1"
         transform="translate(-32.857143,0.71428568)">
        <g
           transform="matrix(0.41950508,0,0,0.41950508,-34.087618,122.83737)"
           id="g3866"
           style="fill:#ff0000;fill-opacity:1;stroke:#ff0000;stroke-opacity:1">
          <g
             style="font-style:normal;font-variant:normal;font-weight:normal;font-stretch:normal;letter-spacing:normal;word-spacing:normal;text-anchor:start;fill:#ff0000;fill-opacity:1;stroke:#ff0000;stroke-linecap:butt;stroke-linejoin:miter;stroke-miterlimit:10.43299961;stroke-opacity:1;stroke-dasharray:none;stroke-dashoffset:0"
             id="content"
             transform="matrix(1.0629921,0,0,-1.0629921,-186.02362,789.27165)"
             xml:space="preserve"
             stroke-miterlimit="10.433"
             font-style="normal"
             font-variant="normal"
             font-weight="normal"
             font-stretch="normal"
             font-size-adjust="none"
             letter-spacing="normal"
             word-spacing="normal"><path
               style="fill:#ff0000;fill-opacity:1;stroke:#ff0000;stroke-width:0;stroke-opacity:1"
               inkscape:connector-curvature="0"
               d="m 1248.1,392.45 0.1,0 0.2,0 0.1,0.01 0.1,0 0.1,0.01 0.1,0.01 0,0 0.1,0.01 0.1,0.02 0.1,0.01 0,0.02 0.1,0.02 0.1,0.02 0,0.02 0.1,0.03 0,0.03 0.1,0.04 0,0.04 0.1,0.04 0,0.04 0.1,0.05 0,0.03 0,0.03 0,0.03 0,0.03 0,0.03 0.1,0.03 0,0.04 0,0.03 0,0.04 0,0.04 0,0.04 0,0.04 0,0.04 0,0.04 0,0.05 0,0.04 c 0,1 -0.9,1 -1.7,1 h -27 c -0.8,0 -1.7,0 -1.7,-1 0,-1 0.9,-1 1.7,-1 z"
               id="path3869" /><path
               style="fill:#ff0000;fill-opacity:1;stroke:#ff0000;stroke-width:0;stroke-opacity:1"
               inkscape:connector-curvature="0"
               d="m 1256.8,392.45 -0.3,-0.19 -0.2,-0.2 -0.2,-0.19 -0.3,-0.2 -0.2,-0.19 -0.2,-0.19 -0.2,-0.19 -0.2,-0.19 -0.2,-0.18 -0.2,-0.18 -0.2,-0.18 -0.1,-0.18 -0.2,-0.17 -0.1,-0.17 -0.2,-0.17 -0.1,-0.16 -0.2,-0.15 -0.1,-0.16 -0.1,-0.15 -0.1,-0.14 -0.1,-0.14 -0.1,-0.13 -0.1,-0.13 -0.1,-0.12 -0.1,-0.11 -0.1,-0.11 0,-0.1 -0.1,-0.1 -0.1,-0.09 0,-0.08 -0.1,-0.07 0,-0.07 c -2.2,-3.44 -2.6,-6.58 -2.6,-6.62 0,-0.6 0.6,-0.6 1,-0.6 0.8,0 0.9,0.1 1.1,1 1.1,4.88 4,9.07 9.7,11.36 0.6,0.19 0.7,0.3 0.7,0.64 0,0.35 -0.3,0.5 -0.4,0.55 -2.2,0.84 -8.2,3.34 -10.1,11.72 -0.1,0.59 -0.2,0.73 -1,0.73 -0.4,0 -1,0 -1,-0.59 0,-0.09 0.4,-3.24 2.5,-6.58 1,-1.48 2.4,-3.23 4.6,-4.83 h -37 c -0.9,0 -1.8,0 -1.8,-1 0,-1 0.9,-1 1.8,-1 z"
               id="path3871" /><path
               style="fill:#ff0000;fill-opacity:1;stroke:#ff0000;stroke-width:0;stroke-opacity:1"
               inkscape:connector-curvature="0"
               d="m 1240.7,380.47 0,0.01 0,0 0,0.01 0,0.01 0,0.01 0,0.01 0,0.02 0,0.02 0,0.02 0,0.02 0,0.02 0,0.02 0,0.03 0,0.02 -0.1,0.02 0,0.03 0,0.02 0,0.03 0,0.02 0,0.03 -0.1,0.02 0,0.01 0,0.01 0,0.01 0,0.01 0,0.01 0,0.01 -0.1,0.01 0,0.01 0,0.01 0,0.01 0,0.01 0,0 -0.1,0.01 0,0.01 0,0 0,0.01 -0.1,0 0,0.01 0,0 0,0 -0.1,0.01 0,0 0,0 0,0 c -1.2,0 -4.8,-0.41 -6.1,-0.5 -0.4,-0.05 -1,-0.09 -1,-1 0,-0.59 0.5,-0.59 1.2,-0.59 2.4,0 2.5,-0.35 2.5,-0.85 l -0.1,-1 -7.3,-28.7 c -0.2,-0.69 -0.2,-0.8 -0.2,-1.09 0,-1.15 1,-1.4 1.5,-1.4 0.6,0 1.4,0.46 1.7,1.05 0.2,0.45 2.5,9.66 2.8,10.91 1.7,-0.14 5.7,-0.94 5.7,-4.24 0,-0.34 0,-0.54 -0.1,-1.04 -0.1,-0.6 -0.2,-1.19 -0.2,-1.74 0,-2.95 2,-4.94 4.6,-4.94 1.5,0 2.8,0.8 3.9,2.65 1.3,2.18 1.8,4.93 1.8,5.03 0,0.5 -0.4,0.5 -0.6,0.5 -0.5,0 -0.5,-0.21 -0.7,-0.91 -1,-3.62 -2.1,-6.17 -4.3,-6.17 -1,0 -1.6,0.55 -1.6,2.34 0,0.85 0.2,1.99 0.4,2.78 0.2,0.86 0.2,1.05 0.2,1.55 0,3.25 -3.2,4.69 -7.4,5.23 1.5,0.91 3.1,2.5 4.3,3.69 2.4,2.64 4.7,4.78 7.1,4.78 0.3,0 0.4,0 0.5,-0.04 0.6,-0.1 0.6,-0.1 1,-0.39 0.1,-0.07 0.1,-0.11 0.2,-0.21 -2.4,-0.15 -2.8,-2.09 -2.8,-2.68 0,-0.8 0.5,-1.75 1.9,-1.75 1.3,0 2.7,1.09 2.7,3.03 0,1.5 -1.1,3.14 -3.4,3.14 -1.4,0 -3.7,-0.39 -7.3,-4.38 -1.7,-1.89 -3.6,-3.89 -5.5,-4.64 z"
               id="path3873" /></g>        </g>
        <g
           transform="matrix(0.3718117,0,0,0.3718117,316.22464,212.38371)"
           id="g3938"
           style="fill:#ff0000;fill-opacity:1;stroke:#ff0000;stroke-opacity:1">
          <path
             style="fill:#ff0000;fill-opacity:1;stroke:#ff0000;stroke-width:3.5;stroke-linecap:butt;stroke-linejoin:miter;stroke-miterlimit:4;stroke-opacity:1;stroke-dasharray:none"
             d="m 267.40735,261.80939 129.48078,0"
             id="path3793-33"
             inkscape:connector-curvature="0" />
          <path
             inkscape:transform-center-x="12.684174"
             transform="matrix(-0.0013452,-0.16644692,0.24379298,-0.0019703,184.61924,282.21586)"
             inkscape:transform-center-y="0.022937452"
             d="M 165.42361,384.4243 71.904118,384.32366 118.75102,303.38372 z"
             inkscape:randomized="0"
             inkscape:rounded="0"
             inkscape:flatsided="true"
             sodipodi:arg2="1.5718723"
             sodipodi:arg1="0.52467485"
             sodipodi:r2="21.441959"
             sodipodi:r1="53.993538"
             sodipodi:cy="357.37723"
             sodipodi:cx="118.69292"
             sodipodi:sides="3"
             id="path3755-0"
             style="fill:#ff0000;fill-opacity:1;stroke:#ff0000;stroke-width:2.55242014;stroke-linecap:round;stroke-linejoin:round;stroke-miterlimit:4;stroke-opacity:1;stroke-dasharray:none;stroke-dashoffset:0"
             sodipodi:type="star" />
        </g>
      </g>
      <path
         style="fill:#1300ff;fill-opacity:1;stroke:#0600ff;stroke-width:2.5;stroke-linecap:butt;stroke-linejoin:miter;stroke-miterlimit:4;stroke-opacity:1;stroke-dasharray:none"
         d="m 291.77619,349.7648 69.66522,69.66522"
         id="path3793-33-5"
         inkscape:connector-curvature="0" />
      <path
         inkscape:transform-center-x="16.360482"
         transform="matrix(0.08883055,-0.09027806,0.13222929,0.13010912,236.25387,316.20123)"
         inkscape:transform-center-y="-16.188808"
         d="M 165.42361,384.4243 71.904118,384.32366 118.75102,303.38372 z"
         inkscape:randomized="0"
         inkscape:rounded="0"
         inkscape:flatsided="true"
         sodipodi:arg2="1.5718723"
         sodipodi:arg1="0.52467485"
         sodipodi:r2="21.441959"
         sodipodi:r1="53.993538"
         sodipodi:cy="357.37723"
         sodipodi:cx="118.69292"
         sodipodi:sides="3"
         id="path3755-0-1"
         style="fill:#1300ff;fill-opacity:1;stroke:#0600ff;stroke-width:0;stroke-linecap:round;stroke-linejoin:round;stroke-miterlimit:4;stroke-opacity:1;stroke-dasharray:none;stroke-dashoffset:0"
         sodipodi:type="star" />
      <g
         style="fill:#1300ff;fill-opacity:1"
         transform="matrix(0.53775405,0,0,0.53775405,-298.66006,194.92231)"
         id="g4028">
        <g
           style="font-style:normal;font-variant:normal;font-weight:normal;font-stretch:normal;letter-spacing:normal;word-spacing:normal;text-anchor:start;fill:#1300ff;fill-opacity:1;stroke:#000000;stroke-linecap:butt;stroke-linejoin:miter;stroke-miterlimit:10.43299961;stroke-opacity:1;stroke-dasharray:none;stroke-dashoffset:0"
           id="g4030"
           transform="matrix(1.0629921,0,0,-1.0629921,-186.02362,789.27165)"
           xml:space="preserve"
           stroke-miterlimit="10.433"
           font-style="normal"
           font-variant="normal"
           font-weight="normal"
           font-stretch="normal"
           font-size-adjust="none"
           letter-spacing="normal"
           word-spacing="normal"><path
             style="fill:#1300ff;fill-opacity:1;stroke-width:0"
             inkscape:connector-curvature="0"
             d="m 1248.1,392.45 0.1,0 0.2,0 0.1,0.01 0.1,0 0.1,0.01 0.1,0.01 0,0 0.1,0.01 0.1,0.02 0.1,0.01 0,0.02 0.1,0.02 0.1,0.02 0,0.02 0.1,0.03 0,0.03 0.1,0.04 0,0.04 0.1,0.04 0,0.04 0.1,0.05 0,0.03 0,0.03 0,0.03 0,0.03 0,0.03 0.1,0.03 0,0.04 0,0.03 0,0.04 0,0.04 0,0.04 0,0.04 0,0.04 0,0.04 0,0.05 0,0.04 c 0,1 -0.9,1 -1.7,1 h -27 c -0.8,0 -1.7,0 -1.7,-1 0,-1 0.9,-1 1.7,-1 z"
             id="path4032" /><path
             style="fill:#1300ff;fill-opacity:1;stroke-width:0"
             inkscape:connector-curvature="0"
             d="m 1256.8,392.45 -0.3,-0.19 -0.2,-0.2 -0.2,-0.19 -0.3,-0.2 -0.2,-0.19 -0.2,-0.19 -0.2,-0.19 -0.2,-0.19 -0.2,-0.18 -0.2,-0.18 -0.2,-0.18 -0.1,-0.18 -0.2,-0.17 -0.1,-0.17 -0.2,-0.17 -0.1,-0.16 -0.2,-0.15 -0.1,-0.16 -0.1,-0.15 -0.1,-0.14 -0.1,-0.14 -0.1,-0.13 -0.1,-0.13 -0.1,-0.12 -0.1,-0.11 -0.1,-0.11 0,-0.1 -0.1,-0.1 -0.1,-0.09 0,-0.08 -0.1,-0.07 0,-0.07 c -2.2,-3.44 -2.6,-6.58 -2.6,-6.62 0,-0.6 0.6,-0.6 1,-0.6 0.8,0 0.9,0.1 1.1,1 1.1,4.88 4,9.07 9.7,11.36 0.6,0.19 0.7,0.3 0.7,0.64 0,0.35 -0.3,0.5 -0.4,0.55 -2.2,0.84 -8.2,3.34 -10.1,11.72 -0.1,0.59 -0.2,0.73 -1,0.73 -0.4,0 -1,0 -1,-0.59 0,-0.09 0.4,-3.24 2.5,-6.58 1,-1.48 2.4,-3.23 4.6,-4.83 h -37 c -0.9,0 -1.8,0 -1.8,-1 0,-1 0.9,-1 1.8,-1 z"
             id="path4034" /><path
             style="fill:#1300ff;fill-opacity:1;stroke-width:0"
             inkscape:connector-curvature="0"
             d="m 1241.3,380.47 0,0.01 0,0 0,0.01 0,0.01 0,0.01 0,0.01 0,0.02 0,0.02 0,0.02 0,0.02 0,0.02 0,0.02 0,0.03 0,0.02 -0.1,0.02 0,0.03 0,0.02 0,0.03 0,0.02 0,0.03 -0.1,0.02 0,0.01 0,0.01 0,0.01 0,0.01 0,0.01 0,0.01 -0.1,0.01 0,0.01 0,0.01 0,0.01 0,0.01 0,0 -0.1,0.01 0,0.01 0,0 0,0.01 -0.1,0 0,0.01 0,0 0,0 -0.1,0.01 0,0 0,0 0,0 c -1.2,0 -4.8,-0.41 -6.1,-0.5 -0.4,-0.05 -1,-0.09 -1,-1 0,-0.59 0.5,-0.59 1.2,-0.59 2.4,0 2.5,-0.35 2.5,-0.85 0,-0.36 -0.4,-2.04 -0.7,-3.09 l -4.1,-16.24 c -0.6,-2.5 -0.8,-3.29 -0.8,-5.03 0,-4.73 2.7,-7.83 6.4,-7.83 v 1.1 c -1.7,0 -3.4,1.34 -3.4,5.03 0,0.95 0,1.89 0.8,5.03 l 1.1,4.59 c 0.3,1.1 0.3,1.19 0.8,1.74 2.4,3.23 4.7,3.98 5.9,3.98 1.9,0 3.2,-1.48 3.2,-4.68 0,-2.94 -1.7,-8.66 -2.6,-10.57 -1.6,-3.32 -3.9,-5.12 -5.8,-5.12 v -1.1 c 5.8,0 12,7.43 12,14.6 0,4.53 -2.7,7.97 -6.7,7.97 -2.2,0 -4.3,-1.44 -5.8,-2.99 z"
             id="path4036" /></g>      </g>
    </g>
  </g>
</svg>
